<svg width="175" height="51" viewBox="0 0 175 51" fill="none" xmlns="http://www.w3.org/2000/svg">
<g clip-path="url(#clip0_1_2)">
<path d="M15.515 34.475C15.1883 34.755 14.745 34.9767 14.185 35.14C13.625 35.3267 12.96 35.42 12.19 35.42C11.2333 35.42 10.405 35.28 9.705 35C9.005 34.7433 8.53833 34.37 8.305 33.88C8.04833 33.32 7.745 32.4333 7.395 31.22C7.06833 30.0067 6.74167 28.6767 6.415 27.23C6.08833 25.7833 5.77333 24.3133 5.47 22.82C5.19 21.3267 4.96833 20.0083 4.805 18.865C5.13167 18.5383 5.56333 18.2583 6.1 18.025C6.66 17.7683 7.26667 17.64 7.92 17.64C8.73667 17.64 9.40167 17.8267 9.915 18.2C10.4517 18.55 10.7783 19.1683 10.895 20.055C11.1283 21.8283 11.3267 23.2983 11.49 24.465C11.6533 25.6083 11.7817 26.5533 11.875 27.3C11.9917 28.0233 12.0733 28.5833 12.12 28.98C12.19 29.3533 12.2483 29.6567 12.295 29.89H12.435C12.505 29.5167 12.6217 28.98 12.785 28.28C12.9717 27.5567 13.1817 26.74 13.415 25.83C13.6483 24.92 13.8933 23.94 14.15 22.89C14.4067 21.8167 14.6633 20.755 14.92 19.705C15.3867 19.4483 15.8417 19.25 16.285 19.11C16.7517 18.97 17.3233 18.9 18 18.9C18.8167 18.9 19.5167 19.0283 20.1 19.285C20.6833 19.5417 21.0567 19.9383 21.22 20.475C21.5 21.5017 21.7683 22.505 22.025 23.485C22.2817 24.4417 22.515 25.34 22.725 26.18C22.935 26.9967 23.1217 27.7317 23.285 28.385C23.4483 29.015 23.565 29.5167 23.635 29.89H23.81C24.0667 28.0933 24.3117 26.2267 24.545 24.29C24.8017 22.3533 25.035 20.3817 25.245 18.375C25.665 18.1183 26.1083 17.9317 26.575 17.815C27.0417 17.6983 27.5083 17.64 27.975 17.64C28.7917 17.64 29.4683 17.815 30.005 18.165C30.5417 18.515 30.81 19.1217 30.81 19.985C30.81 20.3583 30.7517 20.9183 30.635 21.665C30.5183 22.4117 30.3667 23.2517 30.18 24.185C29.9933 25.1183 29.7717 26.0983 29.515 27.125C29.2817 28.1517 29.0367 29.1433 28.78 30.1C28.5467 31.0567 28.3133 31.92 28.08 32.69C27.87 33.46 27.6833 34.055 27.52 34.475C27.1933 34.755 26.6917 34.9767 26.015 35.14C25.3383 35.3267 24.615 35.42 23.845 35.42C21.885 35.42 20.73 34.93 20.38 33.95C20.24 33.53 20.065 33.005 19.855 32.375C19.645 31.7217 19.4233 31.01 19.19 30.24C18.9567 29.47 18.735 28.6767 18.525 27.86C18.315 27.02 18.14 26.215 18 25.445C17.8367 26.2617 17.6383 27.1133 17.405 28C17.1717 28.8633 16.9267 29.715 16.67 30.555C16.4367 31.3717 16.215 32.13 16.005 32.83C15.795 33.5067 15.6317 34.055 15.515 34.475ZM40.7855 31.22C41.1822 31.22 41.6139 31.185 42.0805 31.115C42.5705 31.0217 42.9322 30.905 43.1655 30.765V27.965L40.6455 28.175C39.9922 28.2217 39.4555 28.3617 39.0355 28.595C38.6155 28.8283 38.4055 29.1783 38.4055 29.645C38.4055 30.1117 38.5805 30.4967 38.9305 30.8C39.3039 31.08 39.9222 31.22 40.7855 31.22ZM40.5055 17.465C41.7655 17.465 42.9089 17.5933 43.9355 17.85C44.9855 18.1067 45.8722 18.5033 46.5955 19.04C47.3422 19.5533 47.9139 20.2183 48.3105 21.035C48.7072 21.8283 48.9055 22.7733 48.9055 23.87V31.71C48.9055 32.3167 48.7305 32.8183 48.3805 33.215C48.0539 33.5883 47.6572 33.915 47.1905 34.195C45.6739 35.105 43.5389 35.56 40.7855 35.56C39.5489 35.56 38.4289 35.4433 37.4255 35.21C36.4455 34.9767 35.5939 34.6267 34.8705 34.16C34.1705 33.6933 33.6222 33.0983 33.2255 32.375C32.8522 31.6517 32.6655 30.8117 32.6655 29.855C32.6655 28.245 33.1439 27.0083 34.1005 26.145C35.0572 25.2817 36.5389 24.745 38.5455 24.535L43.1305 24.045V23.8C43.1305 23.1233 42.8272 22.645 42.2205 22.365C41.6372 22.0617 40.7855 21.91 39.6655 21.91C38.7789 21.91 37.9155 22.0033 37.0755 22.19C36.2355 22.3767 35.4772 22.61 34.8005 22.89C34.4972 22.68 34.2405 22.365 34.0305 21.945C33.8205 21.5017 33.7155 21.0467 33.7155 20.58C33.7155 19.9733 33.8555 19.495 34.1355 19.145C34.4389 18.7717 34.8939 18.4567 35.5005 18.2C36.1772 17.9433 36.9705 17.7567 37.8805 17.64C38.8139 17.5233 39.6889 17.465 40.5055 17.465ZM58.4936 34.965C58.2603 35.035 57.887 35.105 57.3736 35.175C56.8836 35.245 56.3703 35.28 55.8336 35.28C55.3203 35.28 54.8536 35.245 54.4336 35.175C54.037 35.105 53.6986 34.965 53.4186 34.755C53.1386 34.545 52.917 34.265 52.7536 33.915C52.6136 33.5417 52.5436 33.0633 52.5436 32.48V21.98C52.5436 21.4433 52.637 20.9883 52.8236 20.615C53.0336 20.2183 53.3253 19.8683 53.6986 19.565C54.072 19.2617 54.527 18.9933 55.0636 18.76C55.6236 18.5033 56.2186 18.2817 56.8486 18.095C57.4786 17.9083 58.132 17.7683 58.8086 17.675C59.4853 17.5583 60.162 17.5 60.8386 17.5C61.9586 17.5 62.8453 17.7217 63.4986 18.165C64.152 18.585 64.4786 19.285 64.4786 20.265C64.4786 20.5917 64.432 20.9183 64.3386 21.245C64.2453 21.5483 64.1286 21.8283 63.9886 22.085C63.4986 22.085 62.997 22.1083 62.4836 22.155C61.9703 22.2017 61.4686 22.2717 60.9786 22.365C60.4886 22.4583 60.022 22.5633 59.5786 22.68C59.1586 22.7733 58.797 22.89 58.4936 23.03V34.965Z" fill="#000054"/>
<path d="M95.77 29.155C95.77 29.7617 95.9567 30.1933 96.33 30.45C96.7267 30.7067 97.275 30.835 97.975 30.835C98.325 30.835 98.6867 30.8117 99.06 30.765C99.4333 30.695 99.76 30.6133 100.04 30.52C100.25 30.7767 100.425 31.0683 100.565 31.395C100.728 31.6983 100.81 32.0717 100.81 32.515C100.81 33.4017 100.472 34.125 99.795 34.685C99.1417 35.245 97.975 35.525 96.295 35.525C94.2417 35.525 92.655 35.0583 91.535 34.125C90.4383 33.1917 89.89 31.675 89.89 29.575V14.595C90.1467 14.525 90.5083 14.455 90.975 14.385C91.465 14.2917 91.9783 14.245 92.515 14.245C93.5417 14.245 94.335 14.4317 94.895 14.805C95.4783 15.155 95.77 15.9133 95.77 17.08V19.32H100.355C100.495 19.5767 100.623 19.9033 100.74 20.3C100.88 20.6733 100.95 21.0933 100.95 21.56C100.95 22.3767 100.763 22.9717 100.39 23.345C100.04 23.695 99.5617 23.87 98.955 23.87H95.77V29.155ZM112.624 35.56C111.247 35.56 109.964 35.3733 108.774 35C107.607 34.6033 106.58 34.02 105.694 33.25C104.83 32.48 104.142 31.5117 103.629 30.345C103.139 29.1783 102.894 27.8133 102.894 26.25C102.894 24.71 103.139 23.3917 103.629 22.295C104.142 21.175 104.807 20.265 105.624 19.565C106.44 18.8417 107.374 18.3167 108.424 17.99C109.474 17.64 110.547 17.465 111.644 17.465C112.88 17.465 114 17.6517 115.004 18.025C116.03 18.3983 116.905 18.9117 117.629 19.565C118.375 20.2183 118.947 21 119.344 21.91C119.764 22.82 119.974 23.8117 119.974 24.885C119.974 25.6783 119.752 26.285 119.309 26.705C118.865 27.125 118.247 27.3933 117.454 27.51L108.809 28.805C109.065 29.575 109.59 30.1583 110.384 30.555C111.177 30.9283 112.087 31.115 113.114 31.115C114.07 31.115 114.969 30.9983 115.809 30.765C116.672 30.5083 117.372 30.2167 117.909 29.89C118.282 30.1233 118.597 30.45 118.854 30.87C119.11 31.29 119.239 31.7333 119.239 32.2C119.239 33.25 118.749 34.0317 117.769 34.545C117.022 34.9417 116.182 35.21 115.249 35.35C114.315 35.49 113.44 35.56 112.624 35.56ZM111.644 21.805C111.084 21.805 110.594 21.8983 110.174 22.085C109.777 22.2717 109.45 22.5167 109.194 22.82C108.937 23.1 108.739 23.4267 108.599 23.8C108.482 24.15 108.412 24.5117 108.389 24.885L114.374 23.905C114.304 23.4383 114.047 22.9717 113.604 22.505C113.16 22.0383 112.507 21.805 111.644 21.805ZM132.428 22.155C131.844 22.155 131.284 22.2483 130.748 22.435C130.234 22.6217 129.779 22.9017 129.383 23.275C129.009 23.625 128.706 24.0683 128.473 24.605C128.239 25.1417 128.123 25.7717 128.123 26.495C128.123 27.9417 128.531 29.0267 129.348 29.75C130.188 30.4733 131.203 30.835 132.393 30.835C133.093 30.835 133.699 30.7533 134.213 30.59C134.726 30.4267 135.181 30.2517 135.578 30.065C136.044 30.3917 136.394 30.7533 136.628 31.15C136.861 31.5233 136.978 31.9783 136.978 32.515C136.978 33.4717 136.523 34.2183 135.613 34.755C134.703 35.2683 133.443 35.525 131.833 35.525C130.363 35.525 129.033 35.315 127.843 34.895C126.653 34.4517 125.626 33.845 124.763 33.075C123.923 32.2817 123.269 31.3367 122.803 30.24C122.336 29.1433 122.103 27.93 122.103 26.6C122.103 25.06 122.348 23.7183 122.838 22.575C123.351 21.4083 124.039 20.4517 124.903 19.705C125.766 18.9583 126.758 18.3983 127.878 18.025C129.021 17.6517 130.223 17.465 131.483 17.465C133.163 17.465 134.458 17.7683 135.368 18.375C136.278 18.9817 136.733 19.7633 136.733 20.72C136.733 21.1633 136.628 21.5833 136.418 21.98C136.208 22.3533 135.963 22.68 135.683 22.96C135.286 22.7733 134.808 22.5983 134.248 22.435C133.688 22.2483 133.081 22.155 132.428 22.155ZM156.762 34.965C156.528 35.035 156.155 35.105 155.642 35.175C155.152 35.245 154.638 35.28 154.102 35.28C153.588 35.28 153.122 35.245 152.702 35.175C152.305 35.105 151.967 34.965 151.687 34.755C151.407 34.545 151.185 34.265 151.022 33.915C150.882 33.5417 150.812 33.0633 150.812 32.48V24.71C150.812 23.7533 150.567 23.0883 150.077 22.715C149.61 22.3183 149.027 22.12 148.327 22.12C147.86 22.12 147.417 22.1783 146.997 22.295C146.577 22.4117 146.238 22.5517 145.982 22.715V34.965C145.748 35.035 145.375 35.105 144.862 35.175C144.372 35.245 143.858 35.28 143.322 35.28C142.808 35.28 142.342 35.245 141.922 35.175C141.525 35.105 141.187 34.965 140.907 34.755C140.627 34.545 140.405 34.265 140.242 33.915C140.102 33.5417 140.032 33.0633 140.032 32.48V12.18C140.288 12.1333 140.662 12.075 141.152 12.005C141.665 11.9117 142.178 11.865 142.692 11.865C143.205 11.865 143.66 11.9 144.057 11.97C144.477 12.04 144.827 12.18 145.107 12.39C145.387 12.6 145.597 12.8917 145.737 13.265C145.9 13.615 145.982 14.0817 145.982 14.665V18.095C146.285 17.9783 146.74 17.85 147.347 17.71C147.977 17.5467 148.665 17.465 149.412 17.465C151.722 17.465 153.518 18.0483 154.802 19.215C156.108 20.3583 156.762 22.0733 156.762 24.36V34.965Z" fill="#0000BE"/>
<circle cx="77" cy="22" r="3" fill="black"/>
</g>
<defs>
<clipPath id="clip0_1_2">
<rect width="175" height="51" fill="white"/>
</clipPath>
</defs>
</svg>
